<svg xmlns="http://www.w3.org/2000/svg" viewBox="0 0 32 32">
  <defs>
    <linearGradient id="logoGradient" x1="0%" y1="0%" x2="100%" y2="100%">
      <stop offset="0%" stop-color="#bf3cfa" />
      <stop offset="100%" stop-color="#1b66f9" />
    </linearGradient>
  </defs>
  <path fill="url(#logoGradient)" d="M23.3,2.2L16,14.1L8.7,2.2L2.1,13.8v9h4.3v-6l2.1-3.4v9.4h4.3v-9.1l3.2,5.1l3.2-5.1v12h4.3v-9.5l2.1,3.4v6.1h4.3v-9L23.3,2.2z M8.5,7.8L6.4,11.3L4.3,7.8H8.5z M23.5,11.3l-2.1-3.4h4.3L23.5,11.3z"/>
  <rect fill="url(#logoGradient)" x="7.3" y="7.8" width="2.6" height="2.6"/>
  <rect fill="url(#logoGradient)" x="12.4" y="13" width="2.6" height="2.6"/>
  <rect fill="url(#logoGradient)" x="9" y="18.1" width="1.7" height="1.7"/>
</svg> 