<svg xmlns="http://www.w3.org/2000/svg" viewBox="0 0 300 80">
  <defs>
    <linearGradient id="gradient" x1="0%" y1="0%" x2="100%" y2="0%">
      <stop offset="0%" stop-color="#7928ca" />
      <stop offset="100%" stop-color="#ff0080" />
    </linearGradient>
    <filter id="glow" x="-20%" y="-20%" width="140%" height="140%">
      <feGaussianBlur in="SourceGraphic" stdDeviation="2" result="blur" />
      <feComposite in="blur" operator="over" in2="SourceGraphic" />
    </filter>
  </defs>
  <g fill="url(#gradient)" filter="url(#glow)">
    <path d="M25.6,52.4c0.4-0.6,0.8-1.1,1.1-1.7c4.4-7.8,8.8-15.7,13.2-23.5c0.5-0.9,1.1-1.2,2.1-1.2c2.1,0.1,4.2,0,6.3,0
      c0.3,0,0.6,0,1,0c-0.1,0.3-0.2,0.6-0.3,0.8c-5.3,9.5-10.7,19-16,28.4c-0.5,0.9-1.1,1.3-2.1,1.2c-1.9-0.1-3.8,0-5.7,0
      c-0.2,0-0.4-0.1-0.6-0.1c0.2-0.4,0.3-0.7,0.5-1c5.3-9.4,10.6-18.7,15.8-28.1c0.1-0.2,0.2-0.3,0.4-0.8c-0.5,0-0.8-0.1-1.1-0.1
      c-1.5,0-3,0-4.5,0c-0.8,0-1.4,0.2-1.8,1c-3.7,6.5-7.4,13-11.1,19.5c-0.3,0.6-0.7,1.1-1,1.7C22.6,48.4,24.1,50.4,25.6,52.4z"/>
    <path d="M129.2,40.5c0.1,7.2-5.7,12.8-12.9,12.9c-7.1,0.1-13-5.7-13-12.8c-0.1-7.2,5.6-12.9,12.8-13
      C123.2,27.4,129.1,33.3,129.2,40.5z M109.4,40.5c0,3.8,3.1,6.9,6.9,6.9c3.8,0,6.8-3,6.8-6.9c0-3.8-3-6.9-6.8-6.9
      C112.5,33.6,109.4,36.7,109.4,40.5z"/>
    <path d="M178.7,42.7c-1.1,0-2.1,0-3.2,0c-0.9,0-1.8,0-2.7,0c-0.7,0-1,0.3-1,1c0,1.4,0,2.8,0,4.2c0,0.8,0.3,1.1,1.1,1.1
      c3.7,0,7.5,0,11.2,0c0.9,0,1.1-0.3,1.1-1.1c0-6.2,0-12.4,0-18.6c0-0.9-0.3-1.1-1.1-1.1c-3.8,0-7.6,0-11.3,0
      c-0.7,0-1,0.3-1,1c0,1.4,0,2.8,0,4.3c0,0.7,0.3,1,1,1c1.9,0,3.8,0,5.9,0C178.7,37.2,178.7,39.9,178.7,42.7z"/>
    <path d="M139.5,40.5c0,7.2,5.8,13,13,13c0.5,0,0.9,0,1.4-0.1c0.8-0.1,1.1-0.5,0.9-1.3c-0.3-1.4-0.5-2.8-0.8-4.2
      c-0.1-0.6-0.5-0.7-1-0.6c-2.6,0.8-5.1-0.5-6.3-2.9c-1.2-2.4-0.5-5.3,1.7-6.9c2.1-1.6,5.2-1.3,7,0.7c0.3,0.4,0.6,0.5,1.1,0.3
      c1.3-0.5,2.6-0.9,3.9-1.4c0.7-0.3,0.8-0.6,0.4-1.3c-3-5.1-9.5-6.9-14.7-4.2C141.6,33.3,139.5,36.8,139.5,40.5z"/>
    <path d="M53.9,42.7c0,1.7,0,3.3,0,5c0,0.8,0.3,1.1,1,1.1c1.7,0,3.5,0,5.2,0c0.8,0,1.1-0.3,1.1-1.1c0-4.2,0-8.4,0-12.6
      c0-2,0-4,0-6c0-0.7-0.3-1-1-1c-1.7,0-3.5,0-5.2,0c-0.8,0-1.1,0.3-1.1,1.1C53.9,33.6,53.9,38.1,53.9,42.7z"/>
    <path d="M76.5,36.1c0-2.1,0-4.2,0-6.3c0-0.7-0.3-1-1-1c-1.7,0-3.5,0-5.2,0c-0.8,0-1.1,0.3-1.1,1.1c0,8.5,0,17.1,0,25.6
      c0,0.8,0.3,1.1,1.1,1.1c1.7,0,3.5,0,5.2,0c0.8,0,1-0.3,1-1.1c0-3.4,0-6.7,0-10.1c0-1.6,0-3.1,0-4.7c0-0.2,0-0.4,0-0.7
      c4.7,5.5,9.3,11,14,16.5c0.4-0.1,0.7-0.1,1.1-0.1c1.7,0,3.4,0,5.1,0c0.1,0,0.3-0.1,0.4-0.1c-0.2-0.2-0.3-0.5-0.5-0.7
      c-4.7-5.5-9.4-11.1-14.1-16.6c-0.2-0.3-0.3-0.5-0.1-0.9c4.2-4.9,8.4-9.7,12.5-14.6c0.3-0.3,0.5-0.6,0.8-0.9
      c-0.2-0.1-0.3-0.1-0.5-0.1c-2,0-4,0-6.1,0c-0.3,0-0.6,0.2-0.8,0.4c-3.9,4.6-7.8,9.1-11.8,13.7C77,36.5,76.8,36.3,76.5,36.1z"/>
    <path d="M207.5,42.8c0,1.7,0,3.3,0,5c0,0.7,0.3,1,1,1c1.7,0,3.4,0,5.2,0c0.9,0,1.2-0.3,1.2-1.2c0-8.4,0-16.9,0-25.3
      c0-0.9-0.3-1.2-1.2-1.2c-1.7,0-3.4,0-5.2,0c-0.8,0-1.1,0.3-1.1,1.1C207.5,29.5,207.5,36.1,207.5,42.8z"/>
    <path d="M202.7,48.9c-0.9,0-1.7,0-2.6,0c-2.1,0-4.2,0-6.3,0c-0.8,0-1.1-0.3-1.1-1.1c0-8.5,0-17.1,0-25.6c0-0.8,0.3-1.1,1.1-1.1
      c2.9,0,5.9,0,8.8,0c0.1,0,0.2,0,0.3,0c0-0.2,0.1-0.3,0.1-0.5c0-1.3,0-2.7,0-4c0-0.9-0.3-1.2-1.2-1.2c-4.9,0-9.8,0-14.7,0
      c-0.9,0-1.2,0.3-1.2,1.2c0,10.9,0,21.7,0,32.6c0,0.9,0.3,1.2,1.2,1.2c4.9,0,9.8,0,14.7,0c0.9,0,1.2-0.3,1.2-1.2
      c0-1.3,0-2.7,0-4C203,48.9,202.9,48.9,202.7,48.9z"/>
    <path d="M235.9,40.5c0,7.2,5.8,13,13,13c0.5,0,0.9,0,1.4-0.1c0.8-0.1,1.1-0.5,0.9-1.3c-0.3-1.4-0.5-2.8-0.8-4.2
      c-0.1-0.6-0.5-0.7-1-0.6c-2.6,0.8-5.1-0.5-6.3-2.9c-1.2-2.4-0.5-5.3,1.7-6.9c2.1-1.6,5.2-1.3,7,0.7c0.3,0.4,0.6,0.5,1.1,0.3
      c1.3-0.5,2.6-0.9,3.9-1.4c0.7-0.3,0.8-0.6,0.4-1.3c-3-5.1-9.5-6.9-14.7-4.2C237.9,33.3,235.9,36.8,235.9,40.5z"/>
    <path d="M225.6,40.5c0-7.1-5.8-13-12.9-13c-0.1,0-0.2,0-0.3,0c-7.1,0.1-12.8,5.9-12.8,13c0,7.1,5.8,12.9,12.9,12.9
      C219.8,53.4,225.6,47.6,225.6,40.5z M205.7,40.5c0-3.8,3.1-6.9,6.9-6.9c3.8,0,6.8,3.1,6.8,6.9c0,3.8-3.1,6.9-6.9,6.9
      C208.7,47.4,205.7,44.3,205.7,40.5z"/>
  </g>
  <g transform="translate(225, 58)" fill="url(#gradient)" filter="url(#glow)">
    <path d="M0.7,9.9c-0.2,0-0.3-0.1-0.5-0.2C0,9.6,0,9.4,0,9.3c0-0.1,0-0.3,0.1-0.4c0.1-0.1,0.2-0.2,0.4-0.2h2.7c0.1,0,0.3,0,0.3,0.1
      c0.1,0.1,0.1,0.2,0.1,0.3c0,0.1,0,0.2-0.1,0.3S3.4,9.5,3.3,9.5H2.6V12c0,0.2,0,0.3-0.1,0.4c-0.1,0.1-0.2,0.1-0.3,0.1
      c-0.1,0-0.3,0-0.3-0.1c-0.1-0.1-0.1-0.2-0.1-0.4V9.9H0.7z M5.6,12c0,0.2,0,0.3-0.1,0.4c-0.1,0.1-0.2,0.1-0.3,0.1
      c-0.1,0-0.3,0-0.3-0.1C4.8,12.3,4.7,12.2,4.7,12V9.3c0-0.2,0-0.3,0.1-0.4c0.1-0.1,0.2-0.1,0.3-0.1c0.1,0,0.3,0,0.3,0.1
      c0.1,0.1,0.1,0.2,0.1,0.4V12z M8.1,12.5c-0.1,0-0.3,0-0.3-0.1c-0.1-0.1-0.1-0.2-0.1-0.4V9.9c0-0.2,0-0.3,0.1-0.4
      c0.1-0.1,0.2-0.1,0.3-0.1c0.1,0,0.3,0,0.3,0.1c0.1,0.1,0.1,0.2,0.1,0.4v0.5c0.1-0.3,0.3-0.5,0.4-0.7c0.1-0.2,0.3-0.2,0.5-0.2
      c0.2,0,0.3,0,0.4,0.1c0.1,0.1,0.1,0.2,0.1,0.3c0,0.1,0,0.3-0.1,0.3c-0.1,0.1-0.2,0.1-0.3,0.1c-0.1,0-0.2,0-0.3-0.1
      c-0.1,0-0.2,0-0.3,0.1C8.8,10.4,8.6,10.6,8.6,11v1c0,0.2,0,0.3-0.1,0.4C8.4,12.5,8.3,12.5,8.1,12.5z"/>
  </g>
</svg> 