<svg xmlns="http://www.w3.org/2000/svg" viewBox="0 0 300 80">
  <defs>
    <filter id="glow" x="-20%" y="-20%" width="140%" height="140%">
      <feGaussianBlur in="SourceGraphic" stdDeviation="2.5" result="blur" />
      <feComposite in="blur" operator="over" in2="SourceGraphic" />
    </filter>
    <filter id="shadow" x="-10%" y="-10%" width="120%" height="120%">
      <feDropShadow dx="1" dy="1" stdDeviation="1" flood-color="#000" flood-opacity="0.2" />
    </filter>
  </defs>
  <g fill="#ffffff" filter="url(#glow)">
    <!-- M -->
    <path d="M25.6,52.4c0.4-0.6,0.8-1.1,1.1-1.7c4.4-7.8,8.8-15.7,13.2-23.5c0.5-0.9,1.1-1.2,2.1-1.2c2.1,0.1,4.2,0,6.3,0
      c0.3,0,0.6,0,1,0c-0.1,0.3-0.2,0.6-0.3,0.8c-5.3,9.5-10.7,19-16,28.4c-0.5,0.9-1.1,1.3-2.1,1.2c-1.9-0.1-3.8,0-5.7,0
      c-0.2,0-0.4-0.1-0.6-0.1c0.2-0.4,0.3-0.7,0.5-1c5.3-9.4,10.6-18.7,15.8-28.1c0.1-0.2,0.2-0.3,0.4-0.8c-0.5,0-0.8-0.1-1.1-0.1
      c-1.5,0-3,0-4.5,0c-0.8,0-1.4,0.2-1.8,1c-3.7,6.5-7.4,13-11.1,19.5c-0.3,0.6-0.7,1.1-1,1.7C22.6,48.4,24.1,50.4,25.6,52.4z" filter="url(#shadow)" />
    <!-- I -->
    <path d="M53.9,42.7c0,1.7,0,3.3,0,5c0,0.8,0.3,1.1,1,1.1c1.7,0,3.5,0,5.2,0c0.8,0,1.1-0.3,1.1-1.1c0-4.2,0-8.4,0-12.6
      c0-2,0-4,0-6c0-0.7-0.3-1-1-1c-1.7,0-3.5,0-5.2,0c-0.8,0-1.1,0.3-1.1,1.1C53.9,33.6,53.9,38.1,53.9,42.7z" filter="url(#shadow)" />
    <!-- R -->
    <path d="M76.5,36.1c0-2.1,0-4.2,0-6.3c0-0.7-0.3-1-1-1c-1.7,0-3.5,0-5.2,0c-0.8,0-1.1,0.3-1.1,1.1c0,8.5,0,17.1,0,25.6
      c0,0.8,0.3,1.1,1.1,1.1c1.7,0,3.5,0,5.2,0c0.8,0,1-0.3,1-1.1c0-3.4,0-6.7,0-10.1c0-1.6,0-3.1,0-4.7c0-0.2,0-0.4,0-0.7
      c4.7,5.5,9.3,11,14,16.5c0.4-0.1,0.7-0.1,1.1-0.1c1.7,0,3.4,0,5.1,0c0.1,0,0.3-0.1,0.4-0.1c-0.2-0.2-0.3-0.5-0.5-0.7
      c-4.7-5.5-9.4-11.1-14.1-16.6c-0.2-0.3-0.3-0.5-0.1-0.9c4.2-4.9,8.4-9.7,12.5-14.6c0.3-0.3,0.5-0.6,0.8-0.9
      c-0.2-0.1-0.3-0.1-0.5-0.1c-2,0-4,0-6.1,0c-0.3,0-0.6,0.2-0.8,0.4c-3.9,4.6-7.8,9.1-11.8,13.7C77,36.5,76.8,36.3,76.5,36.1z" filter="url(#shadow)" />
    <!-- A -->
    <path d="M122.6,53.4c-7.1,0-13-5.7-13-12.8c-0.1-7.2,5.6-12.9,12.8-13c7.1-0.1,13,5.8,13.1,13C135.6,47.8,129.8,53.4,122.6,53.4z
      M122.6,33.6c-3.8,0-6.9,3.1-6.9,6.9c0,3.8,3.1,6.9,6.9,6.9c3.8,0,6.8-3,6.8-6.9C129.4,36.7,126.4,33.6,122.6,33.6z" filter="url(#shadow)" />
    <!-- G -->
    <path d="M152.5,53.5c-0.5,0-0.9,0-1.4-0.1c-0.8-0.1-1.1-0.5-0.9-1.3c0.3-1.4,0.5-2.8,0.8-4.2c0.1-0.6,0.5-0.7,1-0.6
      c2.6,0.8,5.1-0.5,6.3-2.9c1.2-2.4,0.5-5.3-1.7-6.9c-2.1-1.6-5.2-1.3-7,0.7c-0.3,0.4-0.6,0.5-1.1,0.3c-1.3-0.5-2.6-0.9-3.9-1.4
      c-0.7-0.3-0.8-0.6-0.4-1.3c3-5.1,9.5-6.9,14.7-4.2c5.5,2.8,7.6,9.7,4.7,15.2C161.2,50.9,157.1,53.5,152.5,53.5z" filter="url(#shadow)" />
    <!-- E -->
    <path d="M178.7,42.7c-1.1,0-2.1,0-3.2,0c-0.9,0-1.8,0-2.7,0c-0.7,0-1,0.3-1,1c0,1.4,0,2.8,0,4.2c0,0.8,0.3,1.1,1.1,1.1
      c3.7,0,7.5,0,11.2,0c0.9,0,1.1-0.3,1.1-1.1c0-6.2,0-12.4,0-18.6c0-0.9-0.3-1.1-1.1-1.1c-3.8,0-7.6,0-11.3,0
      c-0.7,0-1,0.3-1,1c0,1.4,0,2.8,0,4.3c0,0.7,0.3,1,1,1c1.9,0,3.8,0,5.9,0C178.7,37.2,178.7,39.9,178.7,42.7z" filter="url(#shadow)" />
    
    <!-- D -->
    <path d="M218.8,40.5c0-7.1-5.8-13-12.9-13c-0.1,0-0.2,0-0.3,0c-7.1,0.1-12.8,5.9-12.8,13c0,7.1,5.8,12.9,12.9,12.9
      C213,53.4,218.8,47.6,218.8,40.5z M198.9,40.5c0-3.8,3.1-6.9,6.9-6.9c3.8,0,6.8,3.1,6.8,6.9c0,3.8-3.1,6.9-6.9,6.9
      C201.9,47.4,198.9,44.3,198.9,40.5z" filter="url(#shadow)" />
    <!-- E -->
    <path d="M231.6,48.9c-0.9,0-1.7,0-2.6,0c-2.1,0-4.2,0-6.3,0c-0.8,0-1.1-0.3-1.1-1.1c0-8.5,0-17.1,0-25.6c0-0.8,0.3-1.1,1.1-1.1
      c2.9,0,5.9,0,8.8,0c0.1,0,0.2,0,0.3,0c0-0.2,0.1-0.3,0.1-0.5c0-1.3,0-2.7,0-4c0-0.9-0.3-1.2-1.2-1.2c-4.9,0-9.8,0-14.7,0
      c-0.9,0-1.2,0.3-1.2,1.2c0,10.9,0,21.7,0,32.6c0,0.9,0.3,1.2,1.2,1.2c4.9,0,9.8,0,14.7,0c0.9,0,1.2-0.3,1.2-1.2
      c0-1.3,0-2.7,0-4C231.9,48.9,231.8,48.9,231.6,48.9z" filter="url(#shadow)" />
    <!-- S -->
    <path d="M249.1,53.5c-0.5,0-0.9,0-1.4-0.1c-0.8-0.1-1.1-0.5-0.9-1.3c0.3-1.4,0.5-2.8,0.8-4.2c0.1-0.6,0.5-0.7,1-0.6
      c2.6,0.8,5.1-0.5,6.3-2.9c1.2-2.4,0.5-5.3-1.7-6.9c-2.1-1.6-5.2-1.3-7,0.7c-0.3,0.4-0.6,0.5-1.1,0.3c-1.3-0.5-2.6-0.9-3.9-1.4
      c-0.7-0.3-0.8-0.6-0.4-1.3c3-5.1,9.5-6.9,14.7-4.2c5.5,2.8,7.6,9.7,4.7,15.2C257.8,50.9,253.7,53.5,249.1,53.5z" filter="url(#shadow)" />
    <!-- I -->
    <path d="M269,42.8c0,1.7,0,3.3,0,5c0,0.7,0.3,1,1,1c1.7,0,3.4,0,5.2,0c0.9,0,1.2-0.3,1.2-1.2c0-8.4,0-16.9,0-25.3
      c0-0.9-0.3-1.2-1.2-1.2c-1.7,0-3.4,0-5.2,0c-0.8,0-1.1,0.3-1.1,1.1C269,29.5,269,36.1,269,42.8z" filter="url(#shadow)" />
    <!-- G -->
    <path d="M290,53.5c-0.5,0-0.9,0-1.4-0.1c-0.8-0.1-1.1-0.5-0.9-1.3c0.3-1.4,0.5-2.8,0.8-4.2c0.1-0.6,0.5-0.7,1-0.6
      c2.6,0.8,5.1-0.5,6.3-2.9c1.2-2.4,0.5-5.3-1.7-6.9c-2.1-1.6-5.2-1.3-7,0.7c-0.3,0.4-0.6,0.5-1.1,0.3c-1.3-0.5-2.6-0.9-3.9-1.4
      c-0.7-0.3-0.8-0.6-0.4-1.3c3-5.1,9.5-6.9,14.7-4.2c5.5,2.8,7.6,9.7,4.7,15.2C298.7,50.9,294.6,53.5,290,53.5z" filter="url(#shadow)" />
  </g>
  <g transform="translate(232, 58)" fill="#ffffff" filter="url(#glow)">
    <path d="M0.7,9.9c-0.2,0-0.3-0.1-0.5-0.2C0,9.6,0,9.4,0,9.3c0-0.1,0-0.3,0.1-0.4c0.1-0.1,0.2-0.2,0.4-0.2h2.7c0.1,0,0.3,0,0.3,0.1
      c0.1,0.1,0.1,0.2,0.1,0.3c0,0.1,0,0.2-0.1,0.3S3.4,9.5,3.3,9.5H2.6V12c0,0.2,0,0.3-0.1,0.4c-0.1,0.1-0.2,0.1-0.3,0.1
      c-0.1,0-0.3,0-0.3-0.1c-0.1-0.1-0.1-0.2-0.1-0.4V9.9H0.7z M5.6,12c0,0.2,0,0.3-0.1,0.4c-0.1,0.1-0.2,0.1-0.3,0.1
      c-0.1,0-0.3,0-0.3-0.1C4.8,12.3,4.7,12.2,4.7,12V9.3c0-0.2,0-0.3,0.1-0.4c0.1-0.1,0.2-0.1,0.3-0.1c0.1,0,0.3,0,0.3,0.1
      c0.1,0.1,0.1,0.2,0.1,0.4V12z M8.1,12.5c-0.1,0-0.3,0-0.3-0.1c-0.1-0.1-0.1-0.2-0.1-0.4V9.9c0-0.2,0-0.3,0.1-0.4
      c0.1-0.1,0.2-0.1,0.3-0.1c0.1,0,0.3,0,0.3,0.1c0.1,0.1,0.1,0.2,0.1,0.4v0.5c0.1-0.3,0.3-0.5,0.4-0.7c0.1-0.2,0.3-0.2,0.5-0.2
      c0.2,0,0.3,0,0.4,0.1c0.1,0.1,0.1,0.2,0.1,0.3c0,0.1,0,0.3-0.1,0.3c-0.1,0.1-0.2,0.1-0.3,0.1c-0.1,0-0.2,0-0.3-0.1
      c-0.1,0-0.2,0-0.3,0.1C8.8,10.4,8.6,10.6,8.6,11v1c0,0.2,0,0.3-0.1,0.4C8.4,12.5,8.3,12.5,8.1,12.5z" filter="url(#shadow)" />
  </g>
</svg> 